<?xml version="1.0" encoding="UTF-8"?>
<svg xmlns="http://www.w3.org/2000/svg" xmlns:xlink="http://www.w3.org/1999/xlink" width="84pt" height="114pt" viewBox="0 0 84 114">
<defs>
<g>
<g id="glyph-0-0">
<path d="M 8.96875 -8.8125 C 8.96875 -8.394531 8.90625 -8.015625 8.78125 -7.671875 C 8.65625 -7.335938 8.472656 -7.039062 8.234375 -6.78125 C 8.003906 -6.53125 7.726562 -6.328125 7.40625 -6.171875 C 7.09375 -6.015625 6.757812 -5.910156 6.40625 -5.859375 L 6.40625 -5.796875 C 6.632812 -5.742188 6.851562 -5.65625 7.0625 -5.53125 C 7.28125 -5.40625 7.46875 -5.25 7.625 -5.0625 C 7.789062 -4.882812 7.921875 -4.675781 8.015625 -4.4375 C 8.109375 -4.195312 8.15625 -3.929688 8.15625 -3.640625 C 8.15625 -2.898438 8.007812 -2.285156 7.71875 -1.796875 C 7.425781 -1.316406 7.050781 -0.929688 6.59375 -0.640625 C 6.144531 -0.347656 5.640625 -0.144531 5.078125 -0.03125 C 4.515625 0.0703125 3.960938 0.125 3.421875 0.125 C 3.253906 0.125 3.050781 0.125 2.8125 0.125 C 2.570312 0.125 2.265625 0.113281 1.890625 0.09375 C 1.242188 0.03125 0.828125 -0.0234375 0.640625 -0.078125 L 2.96875 -11.109375 C 3.375 -11.171875 3.832031 -11.222656 4.34375 -11.265625 C 4.851562 -11.304688 5.398438 -11.328125 5.984375 -11.328125 C 6.378906 -11.328125 6.753906 -11.273438 7.109375 -11.171875 C 7.472656 -11.078125 7.789062 -10.925781 8.0625 -10.71875 C 8.34375 -10.519531 8.5625 -10.257812 8.71875 -9.9375 C 8.882812 -9.613281 8.96875 -9.238281 8.96875 -8.8125 Z M 3.78125 -1.03125 C 4.15625 -1.03125 4.519531 -1.070312 4.875 -1.15625 C 5.238281 -1.25 5.5625 -1.390625 5.84375 -1.578125 C 6.132812 -1.773438 6.367188 -2.023438 6.546875 -2.328125 C 6.722656 -2.640625 6.8125 -3.019531 6.8125 -3.46875 C 6.8125 -3.800781 6.734375 -4.078125 6.578125 -4.296875 C 6.421875 -4.515625 6.210938 -4.6875 5.953125 -4.8125 C 5.691406 -4.945312 5.398438 -5.035156 5.078125 -5.078125 C 4.753906 -5.128906 4.425781 -5.15625 4.09375 -5.15625 L 2.96875 -5.15625 L 2.125 -1.140625 C 2.1875 -1.117188 2.285156 -1.101562 2.421875 -1.09375 C 2.554688 -1.082031 2.703125 -1.070312 2.859375 -1.0625 C 3.015625 -1.050781 3.171875 -1.039062 3.328125 -1.03125 C 3.492188 -1.03125 3.644531 -1.03125 3.78125 -1.03125 Z M 4.046875 -6.234375 C 4.222656 -6.234375 4.4375 -6.234375 4.6875 -6.234375 C 4.9375 -6.242188 5.144531 -6.257812 5.3125 -6.28125 C 5.5625 -6.34375 5.820312 -6.421875 6.09375 -6.515625 C 6.375 -6.609375 6.628906 -6.742188 6.859375 -6.921875 C 7.085938 -7.097656 7.269531 -7.320312 7.40625 -7.59375 C 7.550781 -7.863281 7.625 -8.203125 7.625 -8.609375 C 7.625 -8.910156 7.578125 -9.15625 7.484375 -9.34375 C 7.398438 -9.539062 7.269531 -9.703125 7.09375 -9.828125 C 6.914062 -9.953125 6.703125 -10.039062 6.453125 -10.09375 C 6.210938 -10.144531 5.941406 -10.171875 5.640625 -10.171875 C 5.304688 -10.171875 4.988281 -10.160156 4.6875 -10.140625 C 4.382812 -10.128906 4.160156 -10.109375 4.015625 -10.078125 L 3.203125 -6.234375 Z M 4.046875 -6.234375 "/>
</g>
<g id="glyph-1-0">
<path d="M 2.21875 -2.359375 L 1.65625 -2.359375 L 1.171875 0 L 0.375 0 L 1.9375 -7.34375 L 2.71875 -7.34375 L 1.765625 -2.875 L 2.21875 -3 L 4.109375 -5.25 L 5.078125 -5.25 L 3.203125 -3.125 L 2.703125 -2.765625 L 3.109375 -2.359375 L 4.28125 0 L 3.40625 0 Z M 2.21875 -2.359375 "/>
</g>
<g id="glyph-2-0">
<path d="M 1.234375 -3.40625 L 5.6875 -3.40625 L 5.6875 -2.640625 L 1.234375 -2.640625 Z M 1.234375 -3.40625 "/>
</g>
<g id="glyph-2-1">
<path d="M 1.140625 -0.78125 L 2.609375 -0.78125 L 2.609375 -5.859375 L 2.703125 -6.484375 L 2.28125 -5.984375 L 1.140625 -5.15625 L 0.734375 -5.6875 L 3.046875 -7.46875 L 3.421875 -7.46875 L 3.421875 -0.78125 L 4.859375 -0.78125 L 4.859375 0 L 1.140625 0 Z M 1.140625 -0.78125 "/>
</g>
</g>
</defs>
<rect x="-8.4" y="-11.4" width="100.8" height="136.8" fill="rgb(100%, 100%, 100%)" fill-opacity="1"/>
<rect x="-8.4" y="-11.4" width="100.8" height="136.8" fill="rgb(100%, 100%, 100%)" fill-opacity="1"/>
<path fill="none" stroke-width="0.74999" stroke-linecap="butt" stroke-linejoin="miter" stroke="rgb(0%, 0%, 0%)" stroke-opacity="1" stroke-miterlimit="10" d="M 0.00105125 539.999757 L 35.036207 522.75757 " transform="matrix(-1, 0, 0, 1, 53.13777, -504.00757)"/>
<path fill="none" stroke-width="0.74999" stroke-linecap="butt" stroke-linejoin="miter" stroke="rgb(0%, 0%, 0%)" stroke-opacity="1" stroke-miterlimit="10" d="M 0.0014775 501.206141 L 14.903821 539.99911 L 29.806165 501.206141 Z M 0.0014775 501.206141 " transform="matrix(1, 0, 0, -1, 41.24071, 578.99911)"/>
<g fill="rgb(0%, 0%, 0%)" fill-opacity="1">
<use xlink:href="#glyph-0-0" x="16.11846" y="12.28445"/>
</g>
<g fill="rgb(0%, 0%, 0%)" fill-opacity="1">
<use xlink:href="#glyph-1-0" x="25.01426" y="14.54046"/>
</g>
<g fill="rgb(0%, 0%, 0%)" fill-opacity="1">
<use xlink:href="#glyph-2-0" x="32.53202" y="14.54046"/>
</g>
<g fill="rgb(0%, 0%, 0%)" fill-opacity="1">
<use xlink:href="#glyph-2-1" x="42.265229" y="14.54046"/>
</g>
<path fill-rule="nonzero" fill="rgb(0%, 0%, 0%)" fill-opacity="1" d="M 51.890625 39 C 51.890625 36.667969 53.8125 34.746094 56.144531 34.746094 C 58.476562 34.746094 60.394531 36.667969 60.394531 39 C 60.394531 41.332031 58.476562 43.25 56.144531 43.25 C 53.8125 43.25 51.890625 41.332031 51.890625 39 Z M 51.890625 39 "/>
<path fill="none" stroke-width="0.74999" stroke-linecap="butt" stroke-linejoin="miter" stroke="rgb(0%, 0%, 0%)" stroke-opacity="1" stroke-miterlimit="10" d="M 0.00178125 501.205154 L 14.904125 539.998123 L 29.806469 501.205154 Z M 0.00178125 501.205154 " transform="matrix(1, 0, 0, -1, 6.20525, 562.49031)"/>
<g fill="rgb(0%, 0%, 0%)" fill-opacity="1">
<use xlink:href="#glyph-0-0" x="52.89801" y="30.28428"/>
</g>
<g fill="rgb(0%, 0%, 0%)" fill-opacity="1">
<use xlink:href="#glyph-1-0" x="61.79381" y="32.54029"/>
</g>
<g fill="rgb(0%, 0%, 0%)" fill-opacity="1">
<use xlink:href="#glyph-2-0" x="69.31157" y="32.54029"/>
</g>
<g fill="rgb(0%, 0%, 0%)" fill-opacity="1">
<use xlink:href="#glyph-2-1" x="79.044779" y="32.54029"/>
</g>
<path fill-rule="nonzero" fill="rgb(0%, 0%, 0%)" fill-opacity="1" d="M 16.855469 21.757812 C 16.855469 19.421875 18.777344 17.503906 21.109375 17.503906 C 23.441406 17.503906 25.359375 19.421875 25.359375 21.757812 C 25.359375 24.089844 23.441406 26.007812 21.109375 26.007812 C 18.777344 26.007812 16.855469 24.089844 16.855469 21.757812 Z M 16.855469 21.757812 "/>
<path fill="none" stroke-width="0.74999" stroke-linecap="butt" stroke-linejoin="miter" stroke="rgb(0%, 0%, 0%)" stroke-opacity="1" stroke-miterlimit="10" d="M -0.00145375 539.999285 C 1.90089 539.999285 3.467296 538.776629 3.467296 537.288347 L 3.467296 506.647722 C 3.467296 505.159441 5.033703 503.936785 6.936046 503.936785 C 5.033703 503.936785 3.467296 502.710222 3.467296 501.221941 L 3.467296 470.585222 C 3.467296 469.096941 1.90089 467.874285 -0.00145375 467.874285 " transform="matrix(0, 1, 1, 0, -466.67116, 85.44286)"/>
<g fill="rgb(0%, 0%, 0%)" fill-opacity="1">
<use xlink:href="#glyph-0-0" x="31.97411" y="111.08268"/>
</g>
<g fill="rgb(0%, 0%, 0%)" fill-opacity="1">
<use xlink:href="#glyph-1-0" x="40.86991" y="113.33869"/>
</g>
</svg>
